<?xml version="1.0" encoding="utf-8"?>
<!-- Generator: Adobe Illustrator 22.0.1, SVG Export Plug-In . SVG Version: 6.00 Build 0)  -->
<svg version="1.1" id="Layer_1" xmlns="http://www.w3.org/2000/svg" xmlns:xlink="http://www.w3.org/1999/xlink" x="0px" y="0px"
	 viewBox="0 0 100 125" style="enable-background:new 0 0 100 125;" xml:space="preserve">
<style type="text/css">
	.st0{fill:#494949;}
</style>
<path class="st0" d="M35.5,99.8h15.9c0.5,0,0.9-0.5,0.9-1V18.9c0-0.6-0.4-1-0.9-1H35.5c-0.5,0-0.9,0.5-0.9,1v79.9
	C34.6,99.3,35,99.8,35.5,99.8z"/>
<path class="st0" d="M11.7,100h15.9c0.5,0,0.9-0.5,0.9-1V19.1c0-0.6-0.4-1-0.9-1H11.7c-0.5,0-0.9,0.5-0.9,1V99
	C10.8,99.5,11.2,100,11.7,100z"/>
<path class="st0" d="M72.9,100l15.5-3.3c0.5-0.1,0.9-0.6,0.7-1.2L73,18.9c-0.1-0.5-0.6-0.9-1.1-0.8l-15.5,3.3
	c-0.5,0.1-0.9,0.6-0.7,1.2l16.1,76.7C72,99.7,72.4,100.1,72.9,100z"/>
</svg>
