<?xml version="1.0" encoding="utf-8"?>
<!-- Generator: Adobe Illustrator 22.0.1, SVG Export Plug-In . SVG Version: 6.00 Build 0)  -->
<svg version="1.1" id="Layer_1" xmlns="http://www.w3.org/2000/svg" xmlns:xlink="http://www.w3.org/1999/xlink" x="0px" y="0px"
	 viewBox="0 0 90 112.5" style="enable-background:new 0 0 90 112.5;" xml:space="preserve">
<style type="text/css">
	.st0{fill:#494949;}
</style>
<g>
	<g>
		<path class="st0" d="M42,42.2c1.6,0.9,4.3,0.9,5.9,0l29.8-17.3c1.6-0.9,1.6-2.5,0-3.4L48,4.2c-1.6-0.9-4.3-0.9-5.9,0L12.2,21.4
			c-1.6,0.9-1.6,2.5,0,3.4L42,42.2z"/>
	</g>
	<g>
		<path class="st0" d="M43.7,49.5c0-1.9-1.3-4.2-3-5.2L10.8,27c-1.6-0.9-3-0.2-3,1.7v34.6c0,1.9,1.3,4.2,3,5.1l29.9,17.3
			c1.6,0.9,3,0.2,3-1.7L43.7,49.5L43.7,49.5z"/>
	</g>
	<g>
		<path class="st0" d="M49.3,44.4c-1.6,0.9-3,3.3-3,5.2v34.5c0,1.9,1.3,2.7,3,1.7l29.9-17.3c1.6-0.9,3-3.3,3-5.1V28.7
			c0-1.9-1.3-2.7-3-1.7L49.3,44.4z"/>
	</g>
</g>
</svg>
