<?xml version="1.0" encoding="utf-8"?>
<!-- Generator: Adobe Illustrator 22.0.1, SVG Export Plug-In . SVG Version: 6.00 Build 0)  -->
<svg version="1.1" id="Layer_1" xmlns="http://www.w3.org/2000/svg" xmlns:xlink="http://www.w3.org/1999/xlink" x="0px" y="0px"
	 viewBox="0 0 100 125" style="enable-background:new 0 0 100 125;" xml:space="preserve">
<style type="text/css">
	.st0{fill:#494949;}
</style>
<path class="st0" d="M75.6,60.5c11,0,19.9-9,19.9-20s-9-20-20-20s-20,9-20,20c0,22.1,17.9,40,40,40C95.5,80.5,82.4,75.6,75.6,60.5z
	 M45.5,40.5c0-11-9-20-20-20s-20,9-20,20l0,0c0,22.1,17.9,40,40,40c0,0-13.1-4.9-19.9-20C36.6,60.5,45.5,51.5,45.5,40.5z"/>
</svg>
