<?xml version="1.0" encoding="utf-8"?>
<!-- Generator: Adobe Illustrator 22.0.1, SVG Export Plug-In . SVG Version: 6.00 Build 0)  -->
<svg version="1.1" id="Layer_1" xmlns="http://www.w3.org/2000/svg" xmlns:xlink="http://www.w3.org/1999/xlink" x="0px" y="0px"
	 viewBox="0 0 100 125" style="enable-background:new 0 0 100 125;" xml:space="preserve">
<style type="text/css">
	.st0{fill:#2B2B2B;}
</style>
<path class="st0" d="M64.9,54h-5.4c-0.2,0-0.4-0.1-0.6-0.3s-0.2-0.3-0.2-0.6c0-0.5,0.4-0.8,0.8-0.8h6.7c12-14.9,20.2-32.7,22.6-38.3
	c0.3-0.7-0.4-1.3-1.1-1.1C84,14.5,74.9,18.6,65,24.7v4.8c0,0.4-0.4,0.8-0.8,0.8c-0.2,0-0.4-0.1-0.6-0.2c-0.1-0.1-0.2-0.3-0.2-0.6
	v-3.8c-7.3,4.6-15,10.1-21.4,16.5v10.4c0,0.4-0.4,0.8-0.8,0.8c-0.2,0-0.4-0.1-0.6-0.2c-0.1-0.1-0.2-0.3-0.2-0.6v-8.7
	C24,60.8,18.9,72.9,22.7,78l-9.2,9.2c-0.3,0.3-0.3,0.8,0,1.2c0.3,0.3,0.8,0.3,1.2,0l9.2-9.2c5.3,3.9,18-1.6,35.7-19.3
	C61.4,58,63.2,56,64.9,54z M26.7,76.3c-0.3,0.3-0.8,0.3-1.2,0c-0.3-0.3-0.3-0.8,0-1.2l36.8-36.8c0.3-0.3,0.8-0.3,1.2,0
	c0.3,0.3,0.3,0.8,0,1.2L26.7,76.3z"/>
</svg>
