<?xml version="1.0" encoding="utf-8"?>
<!-- Generator: Adobe Illustrator 22.0.1, SVG Export Plug-In . SVG Version: 6.00 Build 0)  -->
<svg version="1.1" id="Layer_1" xmlns="http://www.w3.org/2000/svg" xmlns:xlink="http://www.w3.org/1999/xlink" x="0px" y="0px"
	 viewBox="0 0 100 125" style="enable-background:new 0 0 100 125;" xml:space="preserve">
<style type="text/css">
	.st0{fill:#494949;}
</style>
<path class="st0" d="M42,19H24c-2.8,0-5,2.2-5,5v18c0,2.8,2.2,5,5,5h18c2.8,0,5-2.2,5-5V24C47,21.2,44.8,19,42,19z"/>
<path class="st0" d="M76,53H58c-2.8,0-5,2.2-5,5v18c0,2.8,2.2,5,5,5h18c2.8,0,5-2.2,5-5V58C81,55.2,78.8,53,76,53z"/>
<path class="st0" d="M42,53H24c-2.8,0-5,2.2-5,5v18c0,2.8,2.2,5,5,5h18c2.8,0,5-2.2,5-5V58C47,55.2,44.8,53,42,53z"/>
<path class="st0" d="M76,19H58c-2.8,0-5,2.2-5,5v18c0,2.8,2.2,5,5,5h18c2.8,0,5-2.2,5-5V24C81,21.2,78.8,19,76,19z"/>
</svg>
